# xmcd CD database file generated by LOLA_Freedb v0.9beta0
# 
# Track frame offsets:
#      150
#      13495
#      36496
#      62083
#      75461
#      90164
#      107835
#      121402
#      138494
#      152660
#      172683
#      188272
#      209069
#      221281
# 
# Disc length: 3152 seconds
# 
# Revision: 0 
# Processed by: cddbd v1.5.2PL0 Copyright (c) Steve Scherf et al.
# Submitted via: LOLA_Freedb v0.9beta0
# 
DISCID=b50c4e0e
DTITLE=Rascal and McLane XL - Honky Tonk of Live
DYEAR=2006
DGENRE=
TTITLE0=Rascal and McLane XL - Honky Tonk of Live
TTITLE1=Rascal and McLane XL - Only in America
TTITLE2=Rascal and McLane XL - Lost Love
TTITLE3=Rascal and McLane XL - It must be Love
TTITLE4=Rascal and McLane XL - Don´t Love make a Diamond shine
TTITLE5=Rascal and McLane XL - A Song for You
TTITLE6=Rascal and McLane XL - This is the right Time
TTITLE7=Rascal and McLane XL - Emily
TTITLE8=Rascal and McLane XL - Scotty beam me up
TTITLE9=Rascal and McLane XL - Freedom Oklahoma
TTITLE10=Rascal and McLane XL - This is my Town
TTITLE11=Rascal and McLane XL - Eyes like a Child
TTITLE12=Rascal and McLane XL - Little brown Jack
TTITLE13=Rascal and McLane XL - Long Sermon
EXTD=
EXTT0=
EXTT1=
EXTT2=
EXTT3=
EXTT4=
EXTT5=
EXTT6=
EXTT7=
EXTT8=
EXTT9=
EXTT10=
EXTT11=
EXTT12=
EXTT13=
PLAYORDER=
